<svg width="352" height="352" viewBox="0 0 352 352" fill="none" xmlns="http://www.w3.org/2000/svg">
<path d="M267.52 0H84.48C37.823 0 0 37.823 0 84.48V267.52C0 314.177 37.823 352 84.48 352H267.52C314.177 352 352 314.177 352 267.52V84.48C352 37.823 314.177 0 267.52 0Z" fill="#9060F6"/>
<path d="M296 176.189C296 160.919 292.941 147.5 286.822 135.931C281.003 124.696 272.099 115.296 261.125 108.803C250.112 102.268 237.159 99 222.266 99C207.172 99 193.916 102.166 182.496 108.499C171.184 114.708 161.94 124.015 155.881 135.294C151.622 143.247 148.799 151.87 147.537 160.778H123.903C139.697 143.972 148.464 121.906 148.447 99H117.631C117.614 115.105 111.115 130.545 99.5607 141.932C88.0064 153.32 72.3403 159.724 56 159.742V190.113C72.3403 190.13 88.0064 196.535 99.5607 207.924C111.115 219.31 117.614 234.751 117.631 250.855H148.447C148.475 227.936 139.708 205.854 123.903 189.041H146.824C147.863 200.886 150.932 211.426 156.031 220.66C162.206 231.969 171.554 241.287 182.957 247.501C194.481 253.834 207.788 257 222.875 257C236.743 257 248.165 254.844 257.141 250.531C266.116 246.22 273.303 240.984 278.703 234.825C283.447 229.607 287.602 223.896 291.097 217.796L259.597 201.561C256.792 207.393 252.841 212.619 247.972 216.936C242.871 221.562 234.915 223.875 224.103 223.875C213.478 223.875 204.507 220.66 197.188 214.229C189.868 207.799 185.991 199.439 185.553 189.152H296V176.189ZM185.863 160.813C187.287 152.19 191.062 145.254 197.188 140.006C203.313 134.758 211.563 132.146 221.938 132.171C231.937 132.171 240.044 134.783 246.256 140.006C252.468 145.23 255.996 152.166 256.84 160.813H185.863Z" fill="white"/>
</svg>
